<svg width="1666" height="2012" viewBox="0 0 1666 2012" fill="none" xmlns="http://www.w3.org/2000/svg">
<g filter="url(#filter0_d_76_2)">
<path fill-rule="evenodd" clip-rule="evenodd" d="M1607.18 0H0V1972H706.635C672.476 1732.61 877.223 1539.61 1022.97 1402.23C1117.93 1312.72 1187.85 1246.82 1150.34 1207.07C1084.76 1137.59 1243.64 860.222 1369.58 808.174C1489.82 758.479 1564.1 686.125 1587.4 610.306C1600.41 567.947 1569.87 528.651 1538.81 488.699C1519.69 464.103 1500.38 439.257 1490.91 413.294C1478.06 378.019 1511.35 308.782 1546.81 235.048C1589.66 145.928 1635.67 50.2381 1607.18 0Z" fill="url(#paint0_linear_76_2)"/>
</g>
<defs>
<filter id="filter0_d_76_2" x="0" y="0" width="1666" height="2012" filterUnits="userSpaceOnUse" color-interpolation-filters="sRGB">
<feFlood flood-opacity="0" result="BackgroundImageFix"/>
<feColorMatrix in="SourceAlpha" type="matrix" values="0 0 0 0 0 0 0 0 0 0 0 0 0 0 0 0 0 0 127 0" result="hardAlpha"/>
<feOffset dx="30" dy="20"/>
<feGaussianBlur stdDeviation="10"/>
<feComposite in2="hardAlpha" operator="out"/>
<feColorMatrix type="matrix" values="0 0 0 0 0.139028 0 0 0 0 0.242064 0 0 0 0 0.366667 0 0 0 0.28 0"/>
<feBlend mode="normal" in2="BackgroundImageFix" result="effect1_dropShadow_76_2"/>
<feBlend mode="normal" in="SourceGraphic" in2="effect1_dropShadow_76_2" result="shape"/>
</filter>
<linearGradient id="paint0_linear_76_2" x1="808" y1="0" x2="808" y2="1972" gradientUnits="userSpaceOnUse">
<stop stop-color="#4C77AB"/>
<stop offset="0.144655" stop-color="#426590"/>
<stop offset="0.336365" stop-color="#364D6D"/>
<stop offset="0.729167" stop-color="#1C1B25"/>
</linearGradient>
</defs>
</svg>
